<mxfile host="app.diagrams.net" agent="Mozilla/5.0 (Windows NT 10.0; Win64; x64; rv:131.0) Gecko/20100101 Firefox/131.0" version="24.7.16">
  <diagram name="Page-1" id="ORqxp_lenFISklWIgD1Z">
    <mxGraphModel dx="1396" dy="533" grid="1" gridSize="10" guides="1" tooltips="1" connect="1" arrows="1" fold="1" page="1" pageScale="1" pageWidth="850" pageHeight="1100" math="0" shadow="0">
      <root>
        <mxCell id="0" />
        <mxCell id="1" parent="0" />
        <mxCell id="3Matm0RwL3E6TrKxdb5C-25" value="" style="rounded=0;whiteSpace=wrap;html=1;dashed=1;" vertex="1" parent="1">
          <mxGeometry x="-570" y="210" width="500" height="220" as="geometry" />
        </mxCell>
        <mxCell id="3Matm0RwL3E6TrKxdb5C-24" value="" style="rounded=0;whiteSpace=wrap;html=1;dashed=1;" vertex="1" parent="1">
          <mxGeometry x="-550" y="230" width="450" height="140" as="geometry" />
        </mxCell>
        <mxCell id="3Matm0RwL3E6TrKxdb5C-1" value="NGINX" style="rounded=0;whiteSpace=wrap;html=1;" vertex="1" parent="1">
          <mxGeometry x="-200" y="260" width="80" height="50" as="geometry" />
        </mxCell>
        <mxCell id="3Matm0RwL3E6TrKxdb5C-2" value="&lt;div&gt;Uvicorn&lt;/div&gt;" style="rounded=0;whiteSpace=wrap;html=1;" vertex="1" parent="1">
          <mxGeometry x="-310" y="260" width="80" height="50" as="geometry" />
        </mxCell>
        <mxCell id="3Matm0RwL3E6TrKxdb5C-3" value="Redis" style="rounded=0;whiteSpace=wrap;html=1;" vertex="1" parent="1">
          <mxGeometry x="-420" y="260" width="80" height="50" as="geometry" />
        </mxCell>
        <mxCell id="3Matm0RwL3E6TrKxdb5C-4" value="MariaDB" style="rounded=0;whiteSpace=wrap;html=1;" vertex="1" parent="1">
          <mxGeometry x="-530" y="260" width="80" height="50" as="geometry" />
        </mxCell>
        <mxCell id="3Matm0RwL3E6TrKxdb5C-9" value="" style="endArrow=classic;html=1;rounded=0;" edge="1" parent="1">
          <mxGeometry width="50" height="50" relative="1" as="geometry">
            <mxPoint x="-489.75" y="350" as="sourcePoint" />
            <mxPoint x="-490.25" y="310" as="targetPoint" />
          </mxGeometry>
        </mxCell>
        <mxCell id="3Matm0RwL3E6TrKxdb5C-10" value="" style="endArrow=none;html=1;rounded=0;" edge="1" parent="1">
          <mxGeometry width="50" height="50" relative="1" as="geometry">
            <mxPoint x="-490" y="350" as="sourcePoint" />
            <mxPoint x="-280" y="350" as="targetPoint" />
          </mxGeometry>
        </mxCell>
        <mxCell id="3Matm0RwL3E6TrKxdb5C-11" value="" style="endArrow=classic;html=1;rounded=0;" edge="1" parent="1">
          <mxGeometry width="50" height="50" relative="1" as="geometry">
            <mxPoint x="-379.84000000000003" y="350" as="sourcePoint" />
            <mxPoint x="-380.34000000000003" y="310" as="targetPoint" />
          </mxGeometry>
        </mxCell>
        <mxCell id="3Matm0RwL3E6TrKxdb5C-13" value="" style="endArrow=classic;html=1;rounded=0;" edge="1" parent="1">
          <mxGeometry width="50" height="50" relative="1" as="geometry">
            <mxPoint x="-279.5" y="350" as="sourcePoint" />
            <mxPoint x="-280" y="310" as="targetPoint" />
          </mxGeometry>
        </mxCell>
        <mxCell id="3Matm0RwL3E6TrKxdb5C-14" value="" style="endArrow=classic;startArrow=classic;html=1;rounded=0;exitX=0.5;exitY=0;exitDx=0;exitDy=0;" edge="1" parent="1" source="3Matm0RwL3E6TrKxdb5C-17">
          <mxGeometry width="50" height="50" relative="1" as="geometry">
            <mxPoint x="-510" y="400" as="sourcePoint" />
            <mxPoint x="-510" y="310" as="targetPoint" />
          </mxGeometry>
        </mxCell>
        <mxCell id="3Matm0RwL3E6TrKxdb5C-15" value="" style="endArrow=classic;startArrow=classic;html=1;rounded=0;exitX=0.5;exitY=0;exitDx=0;exitDy=0;" edge="1" parent="1" source="3Matm0RwL3E6TrKxdb5C-16">
          <mxGeometry width="50" height="50" relative="1" as="geometry">
            <mxPoint x="-150" y="390" as="sourcePoint" />
            <mxPoint x="-150" y="310" as="targetPoint" />
          </mxGeometry>
        </mxCell>
        <mxCell id="3Matm0RwL3E6TrKxdb5C-16" value="SSL certs" style="text;html=1;align=center;verticalAlign=middle;whiteSpace=wrap;rounded=0;" vertex="1" parent="1">
          <mxGeometry x="-180" y="390" width="60" height="30" as="geometry" />
        </mxCell>
        <mxCell id="3Matm0RwL3E6TrKxdb5C-17" value="Arquivos BD" style="text;html=1;align=center;verticalAlign=middle;whiteSpace=wrap;rounded=0;" vertex="1" parent="1">
          <mxGeometry x="-540" y="390" width="60" height="30" as="geometry" />
        </mxCell>
        <mxCell id="3Matm0RwL3E6TrKxdb5C-18" value="&lt;div&gt;API&lt;/div&gt;&lt;div&gt;Aviation Weather&lt;br&gt;&lt;/div&gt;" style="rounded=1;whiteSpace=wrap;html=1;" vertex="1" parent="1">
          <mxGeometry x="-320" y="140" width="100" height="50" as="geometry" />
        </mxCell>
        <mxCell id="3Matm0RwL3E6TrKxdb5C-19" value="" style="endArrow=classic;startArrow=classic;html=1;rounded=0;exitX=0.5;exitY=0;exitDx=0;exitDy=0;" edge="1" parent="1" source="3Matm0RwL3E6TrKxdb5C-2">
          <mxGeometry width="50" height="50" relative="1" as="geometry">
            <mxPoint x="-270" y="220" as="sourcePoint" />
            <mxPoint x="-270.34000000000003" y="190" as="targetPoint" />
          </mxGeometry>
        </mxCell>
        <mxCell id="3Matm0RwL3E6TrKxdb5C-20" value="" style="endArrow=none;html=1;rounded=0;" edge="1" parent="1">
          <mxGeometry width="50" height="50" relative="1" as="geometry">
            <mxPoint x="-260" y="350" as="sourcePoint" />
            <mxPoint x="-180" y="350" as="targetPoint" />
          </mxGeometry>
        </mxCell>
        <mxCell id="3Matm0RwL3E6TrKxdb5C-21" value="" style="endArrow=classic;html=1;rounded=0;" edge="1" parent="1">
          <mxGeometry width="50" height="50" relative="1" as="geometry">
            <mxPoint x="-259.5" y="350" as="sourcePoint" />
            <mxPoint x="-260" y="310" as="targetPoint" />
          </mxGeometry>
        </mxCell>
        <mxCell id="3Matm0RwL3E6TrKxdb5C-22" value="" style="endArrow=classic;html=1;rounded=0;" edge="1" parent="1">
          <mxGeometry width="50" height="50" relative="1" as="geometry">
            <mxPoint x="-179.5" y="350" as="sourcePoint" />
            <mxPoint x="-180" y="310" as="targetPoint" />
          </mxGeometry>
        </mxCell>
        <mxCell id="3Matm0RwL3E6TrKxdb5C-28" value="Servidor" style="text;html=1;align=center;verticalAlign=middle;whiteSpace=wrap;rounded=0;rotation=-90;" vertex="1" parent="1">
          <mxGeometry x="-110" y="230" width="60" height="30" as="geometry" />
        </mxCell>
        <mxCell id="3Matm0RwL3E6TrKxdb5C-29" value="Docker" style="text;html=1;align=center;verticalAlign=middle;whiteSpace=wrap;rounded=0;rotation=-90;" vertex="1" parent="1">
          <mxGeometry x="-140" y="240" width="60" height="30" as="geometry" />
        </mxCell>
        <mxCell id="3Matm0RwL3E6TrKxdb5C-30" value="Internet" style="text;html=1;align=center;verticalAlign=middle;whiteSpace=wrap;rounded=0;rotation=-90;" vertex="1" parent="1">
          <mxGeometry x="-110" y="160" width="60" height="30" as="geometry" />
        </mxCell>
        <mxCell id="3Matm0RwL3E6TrKxdb5C-33" value="&lt;div&gt;aero.a4barros.com:443&lt;/div&gt;&lt;div&gt;aero.a4barros.com:80&lt;br&gt;&lt;/div&gt;" style="text;html=1;align=center;verticalAlign=middle;whiteSpace=wrap;rounded=0;" vertex="1" parent="1">
          <mxGeometry x="-180" y="50" width="60" height="30" as="geometry" />
        </mxCell>
        <mxCell id="3Matm0RwL3E6TrKxdb5C-34" value="CloudFlare" style="ellipse;shape=cloud;whiteSpace=wrap;html=1;" vertex="1" parent="1">
          <mxGeometry x="-215" y="132.5" width="110" height="65" as="geometry" />
        </mxCell>
        <mxCell id="3Matm0RwL3E6TrKxdb5C-35" value="" style="endArrow=classic;startArrow=classic;html=1;rounded=0;" edge="1" parent="1">
          <mxGeometry width="50" height="50" relative="1" as="geometry">
            <mxPoint x="-150.34" y="132.5" as="sourcePoint" />
            <mxPoint x="-150.34" y="82.5" as="targetPoint" />
          </mxGeometry>
        </mxCell>
        <mxCell id="3Matm0RwL3E6TrKxdb5C-36" value="" style="endArrow=classic;startArrow=classic;html=1;rounded=0;" edge="1" parent="1">
          <mxGeometry width="50" height="50" relative="1" as="geometry">
            <mxPoint x="-160.34" y="255" as="sourcePoint" />
            <mxPoint x="-160.34" y="205" as="targetPoint" />
          </mxGeometry>
        </mxCell>
        <mxCell id="3Matm0RwL3E6TrKxdb5C-37" value="Rede Docker: aeronet" style="text;html=1;align=center;verticalAlign=middle;whiteSpace=wrap;rounded=0;" vertex="1" parent="1">
          <mxGeometry x="-480" y="340" width="180" height="30" as="geometry" />
        </mxCell>
        <mxCell id="3Matm0RwL3E6TrKxdb5C-39" value="Rede Docker: net" style="text;html=1;align=center;verticalAlign=middle;whiteSpace=wrap;rounded=0;" vertex="1" parent="1">
          <mxGeometry x="-280" y="340" width="110" height="30" as="geometry" />
        </mxCell>
        <mxCell id="3Matm0RwL3E6TrKxdb5C-41" value="Volume" style="text;html=1;align=center;verticalAlign=middle;whiteSpace=wrap;rounded=0;rotation=-90;" vertex="1" parent="1">
          <mxGeometry x="-550" y="330" width="60" height="30" as="geometry" />
        </mxCell>
        <mxCell id="3Matm0RwL3E6TrKxdb5C-42" value="Volume" style="text;html=1;align=center;verticalAlign=middle;whiteSpace=wrap;rounded=0;rotation=-90;" vertex="1" parent="1">
          <mxGeometry x="-170" y="330" width="60" height="30" as="geometry" />
        </mxCell>
      </root>
    </mxGraphModel>
  </diagram>
</mxfile>
